<svg version="1.1" id="Capa_1" xmlns="http://www.w3.org/2000/svg" xmlns:xlink="http://www.w3.org/1999/xlink" x="0px" y="0px"
	 viewBox="0 0 2700 600" style="enable-background:new 0 0 2700 600;" xml:space="preserve">
<style type="text/css">
    
    	.st0{fill:#CB2C37;}
	.st1{fill:#212422;}
    @media (prefers-color-scheme: dark) {
	.st0{fill:#CB2C37;}
	.st1{fill:#afafaf;}
}

</style>
<g>
	<path class="st0" d="M652.3,272.6c-1.1-11.5,1.5-22.6,3.7-33.8c2.6-13.3,7.8-25.8,11.8-38.7c1.7-5.5,6.7-9.5,9.2-15
		c6.5-14.2,16.1-26.4,26.4-38.2c16.7-19.2,36-35.4,58.7-46.8c41.7-20.8,85.6-28.6,131.7-19.7c36.7,7.1,69.9,22,98.7,46.1
		c27.4,23,48,50.9,61.7,84.1c1.9,4.7,2.6,9.6,4.1,14.4c-1.4-1.2-2.8-1.9-4.8-1.9c-10.5-0.2-21.1-0.6-31.6-0.7
		c-37.5-0.2-75-0.1-112.4,3.2c-2.4,0.2-5.2,0.7-7-1.5c-6-7.1-13.7-11.7-21.9-15.8c-16.1-8.2-32.8-8.4-49.4-3.3
		c-16.3,5-28.7,15.6-36.7,31.1c-3.7,7.3-7.5,13.7-18.1,14c-14.4,0.4-28.6,3.7-43,5.3c-19,2-37.7,5.7-56.2,10
		C668.9,267.2,660.7,270.1,652.3,272.6z"/>
	<path class="st1" d="M652.3,272.6c8.3-2.5,16.6-5.4,25-7.4c18.5-4.3,37.2-7.9,56.2-10c14.4-1.5,28.6-4.8,43-5.3
		c10.6-0.3,14.3-6.7,18.1-14c8-15.5,20.4-26.1,36.7-31.1c16.6-5.1,33.3-4.9,49.4,3.3c8.2,4.2,15.9,8.7,21.9,15.8
		c1.9,2.2,4.6,1.7,7,1.5c37.4-3.2,74.9-3.3,112.4-3.2c10.5,0.1,21.1,0.5,31.6,0.7c2,0,3.4,0.7,4.8,1.9c1.6,5.6,3.6,11.2,3.8,17.1
		c0.1,2.2,0.2,3-2.5,3.1c-4.2,0.2-8.3,0.1-12.6-0.6c-5.9-1-12.1-0.9-18.2-1c-31.3-0.6-62.5,0-93.7,2.2c-6,0.4-12.1,0.9-17.8,0.9
		c3.1,20.4,3.4,39.9-7.9,58.6c-10.7,17.6-25.2,29.1-45,33.4c-22.2,4.9-41.4-1.8-57.7-17.5c-14-13.5-21.1-30.1-21.7-49.7
		c-29.8,2.5-59.2,7-88.6,12.2c-13.1,2.3-25.9,5.9-38.9,8.7c-4.1,0.9-5.8,0.4-5.4-4.3C652.7,283,652.4,277.8,652.3,272.6z
		 M852.2,325.1c24.7,1.5,52.2-22.4,52.2-53.3c0-32.9-26.7-52.4-52.7-51.9c-25.6,0.5-50.6,25.9-50.7,56.4
		C800.8,301.5,825.7,326.9,852.2,325.1z"/>
	<path class="st1" d="M655.7,325c40,110,137.7,159.3,232.5,144.4c112.3-17.6,181.2-113.4,179-208.8c2.7,5,2.6,9.8,3,14.3
		c2.3,22.3,0,44.3-5,66.1c-5.6,24.1-15.1,46.4-29.7,66.2c-22.2,30.3-50.7,53.3-85.7,67.7c-35.5,14.5-72.2,20.6-110.7,17.7
		c-48-3.7-89.2-22.7-124.7-54.1c-27.3-24.2-46-54.3-54.2-90.2C658.5,340.6,655.4,333.1,655.7,325z"/>
	<path class="st1" d="M853,243.1c16.6,0.3,30.1,13.6,29.7,29.4c-0.4,15.1-16.3,30.2-31.3,29.7c-13.8-0.5-27.5-14.3-27.2-27.3
		C824.6,257.1,837.6,242.8,853,243.1z"/>
</g>
<g>
	<path class="st1" d="M1141,122.6c3.2,0.1,6.3,0.2,9.6,0.5c3.2,0.3,6.4,0.7,9.7,1.3l-0.5,4.6c-2.8-0.2-5.9-0.4-9.1-0.5
		c-3.2-0.1-6.3-0.2-9.4-0.2c-2.6,0-4.9,0.1-6.8,0.3c-1.9,0.2-3.5,0.6-4.7,1.4c-1.2,0.7-2.1,1.9-2.7,3.5s-0.8,3.9-0.8,6.8
		c0,4.1,0.7,7,2.1,8.7c1.4,1.7,3.8,2.9,7.1,3.5l14,2.9c5,1,8.5,3,10.5,5.9c2,2.9,2.9,7,2.9,12.4c0,3.9-0.4,7.1-1.4,9.4
		s-2.2,4.1-4,5.4c-1.8,1.2-4,2.1-6.7,2.5c-2.7,0.4-5.9,0.7-9.6,0.7c-2.3,0-5.2-0.1-8.6-0.3c-3.4-0.2-7.3-0.6-11.7-1.4l0.5-4.6
		c3.3,0.1,6,0.2,8.3,0.3c2.2,0.1,4.2,0.2,6,0.2c1.8,0,3.7,0,5.7,0c3.7-0.1,6.7-0.4,8.9-1c2.2-0.6,3.8-1.7,4.7-3.5
		c0.9-1.7,1.4-4.4,1.4-7.9c0-2.9-0.3-5.2-0.9-6.8c-0.6-1.6-1.6-2.9-3-3.8c-1.4-0.9-3.2-1.5-5.4-1.9l-14.2-3c-4.8-1-8.1-2.9-10.1-5.8
		c-2-2.9-2.9-7-2.9-12.1c0-3.9,0.4-7.1,1.3-9.4c0.9-2.3,2.2-4.1,3.9-5.3c1.7-1.2,3.9-1.9,6.5-2.3
		C1134.3,122.8,1137.4,122.6,1141,122.6z"/>
	<path class="st1" d="M1201.1,143.6v5h-30.4V144l9.2-0.5H1201.1z M1185.3,129.5v49.3c0,2.4,0.6,4.1,1.7,5.2c1.1,1.1,2.8,1.6,5.2,1.6
		h7.6l0.8,4.5c-1,0.3-2.1,0.5-3.3,0.6c-1.3,0.2-2.5,0.3-3.6,0.3c-1.2,0.1-2.1,0.1-2.8,0.1c-3.8,0-6.7-1-8.6-3c-2-2-2.9-4.9-2.9-8.7
		v-50H1185.3z"/>
	<path class="st1" d="M1236.7,143.6v5h-30.4V144l9.2-0.5H1236.7z M1220.9,129.5v49.3c0,2.4,0.6,4.1,1.7,5.2c1.1,1.1,2.8,1.6,5.2,1.6
		h7.6l0.8,4.5c-1,0.3-2.1,0.5-3.3,0.6c-1.3,0.2-2.5,0.3-3.6,0.3c-1.2,0.1-2.1,0.1-2.8,0.1c-3.8,0-6.7-1-8.6-3c-2-2-2.9-4.9-2.9-8.7
		v-50H1220.9z"/>
	<path class="st1" d="M1265.9,142.4c6.7,0,11.6,1.2,14.7,3.7c3.1,2.4,4.7,6.1,4.8,10.9c0.1,4.2-0.7,7.4-2.4,9.7
		c-1.7,2.3-4.5,3.4-8.4,3.4h-27.1v-4.8h25.8c2.4,0,4-0.8,4.8-2.3c0.8-1.5,1.2-3.5,1.2-5.8c-0.1-3.3-1.1-5.7-3.2-7.2
		c-2.1-1.4-5.3-2.2-9.9-2.2c-3.7,0-6.7,0.6-8.9,1.7c-2.2,1.2-3.7,3.1-4.6,5.8c-0.9,2.7-1.4,6.5-1.4,11.2c0,5.2,0.5,9.3,1.6,12.1
		c1.1,2.9,2.8,4.9,5.2,6c2.4,1.1,5.5,1.7,9.4,1.7c2.7,0,5.5-0.1,8.4-0.3c2.9-0.2,5.5-0.5,7.7-0.8l0.7,4.2c-1.4,0.5-3.1,0.9-5.2,1.3
		c-2.1,0.3-4.2,0.6-6.5,0.8c-2.2,0.2-4.2,0.3-5.9,0.3c-5.3,0-9.5-0.8-12.7-2.5c-3.2-1.6-5.5-4.3-7-7.9c-1.5-3.6-2.2-8.4-2.2-14.3
		c0-6.1,0.7-10.9,2.2-14.5c1.4-3.5,3.7-6.1,6.8-7.6C1256.9,143.2,1260.9,142.4,1265.9,142.4z"/>
	<path class="st1" d="M1317.4,142.4c6.7,0,11.6,1.2,14.7,3.7c3.1,2.4,4.7,6.1,4.8,10.9c0.1,4.2-0.7,7.4-2.4,9.7
		c-1.7,2.3-4.5,3.4-8.4,3.4h-27.1v-4.8h25.8c2.4,0,4-0.8,4.8-2.3c0.8-1.5,1.2-3.5,1.2-5.8c-0.1-3.3-1.1-5.7-3.2-7.2
		s-5.3-2.2-9.9-2.2c-3.7,0-6.7,0.6-8.9,1.7c-2.2,1.2-3.7,3.1-4.6,5.8c-0.9,2.7-1.4,6.5-1.4,11.2c0,5.2,0.5,9.3,1.6,12.1
		c1.1,2.9,2.8,4.9,5.2,6c2.4,1.1,5.5,1.7,9.4,1.7c2.7,0,5.5-0.1,8.4-0.3c2.9-0.2,5.5-0.5,7.7-0.8l0.7,4.2c-1.4,0.5-3.1,0.9-5.2,1.3
		c-2.1,0.3-4.3,0.6-6.5,0.8c-2.2,0.2-4.2,0.3-5.9,0.3c-5.3,0-9.5-0.8-12.7-2.5c-3.2-1.6-5.5-4.3-7-7.9c-1.5-3.6-2.2-8.4-2.2-14.3
		c0-6.1,0.7-10.9,2.2-14.5c1.4-3.5,3.7-6.1,6.8-7.6C1308.4,143.2,1312.4,142.4,1317.4,142.4z"/>
	<path class="st1" d="M1355.3,143.6l0.5,8.9l0.5,1.5v36.5h-6.1v-46.8H1355.3z M1377.3,142.4c8.4,0,12.6,4.3,12.6,12.8v35.2h-6.1
		v-33.5c0-3.3-0.6-5.7-1.9-7.1c-1.3-1.4-3.3-2.1-6.2-2.1c-3.2,0-6.2,0.7-9.3,2.2c-3,1.5-6.6,3.6-10.8,6.3l-0.3-4.5
		c3.8-3,7.5-5.2,11.2-6.9C1370.2,143.2,1373.8,142.4,1377.3,142.4z"/>
	<path class="st1" d="M1407.2,120.7c0.8,0,1.4,0.2,1.8,0.5c0.4,0.4,0.5,0.9,0.5,1.8v5.9c-0.1,1.5-0.2,3.1-0.4,4.6
		c-0.2,1.5-0.5,3-0.9,4.5c-0.4,1.5-0.9,2.9-1.5,4.3l-2.8-0.9c0.2-1.9,0.4-3.7,0.5-5.2c0.1-1.5,0.2-3.4,0.2-5.7
		c-1.2,0-1.7-0.6-1.7-1.9l0.1-5.6c0-0.8,0.2-1.4,0.6-1.8c0.4-0.4,1-0.5,1.8-0.5H1407.2z"/>
	<path class="st1" d="M1438.2,142.4c2,0,4.1,0.1,6.3,0.2c2.2,0.1,4.4,0.3,6.6,0.5c2.2,0.2,4.2,0.4,6.2,0.7l-0.6,4.5
		c-2.9-0.2-5.9-0.3-8.9-0.4s-6-0.1-8.9-0.1c-3.1-0.1-5.6,0-7.4,0.2c-1.8,0.2-3.2,0.9-4.1,1.9c-0.9,1.1-1.3,2.8-1.3,5.3
		c0,2.8,0.6,4.7,1.8,5.7c1.2,1,3,1.7,5.4,2.2l14.4,2.7c3.6,0.7,6.3,2,8.1,3.9c1.8,1.9,2.7,4.7,2.7,8.6c0,3.9-0.7,6.8-2.1,8.7
		c-1.4,1.9-3.6,3.1-6.5,3.7c-2.9,0.6-6.5,0.9-10.8,0.9c-1.9,0-4.4-0.1-7.5-0.2c-3.1-0.1-6.6-0.5-10.4-1.1l0.5-4.4
		c1.7,0.1,3.5,0.1,5.2,0.2c1.7,0.1,3.5,0.2,5.4,0.2c1.8,0,3.7,0,5.7,0c3.7-0.1,6.6-0.3,8.7-0.6c2.1-0.4,3.6-1.1,4.5-2.3
		c0.9-1.2,1.4-2.9,1.4-5.2c0-2.7-0.7-4.5-2.2-5.5c-1.5-1-3.3-1.7-5.6-2.1l-14.3-2.6c-2.4-0.5-4.3-1.3-5.9-2.3
		c-1.5-1-2.7-2.3-3.4-4.1c-0.7-1.7-1.1-3.8-1.1-6.4c0-3.7,0.6-6.5,1.9-8.4c1.3-1.8,3.3-3,5.9-3.6
		C1430.7,142.6,1434,142.3,1438.2,142.4z"/>
</g>
<g>
	<path class="st1" d="M1242.9,283.9c0,30.1-26.5,55.9-58.2,55.9h-40.3v64c0,8.4-6.6,15.1-15.1,15.1c-8.4,0-15.1-6.6-15.1-15.1v-162
		c0-7.9,6.4-14.5,14.3-15.1v-1.5h58.2C1217.1,225.2,1242.9,252,1242.9,283.9z M1212.5,283.9c0-14.8-12.2-28.3-25.8-28.3h-42.4v53.8
		h40.3C1199.5,309.4,1212.5,297.4,1212.5,283.9z"/>
	<path class="st1" d="M1357.7,419.1c-53.6,0-97-43.4-97-97c0-53.3,43.4-96.7,97-96.7c53.3,0,96.7,43.4,96.7,97
		C1454.4,375.7,1411,419.1,1357.7,419.1z M1357.7,256.3c-36.5,0-66.1,29.6-66.1,65.8c0,36.5,29.6,66.1,66.1,66.1
		c36.2,0,65.8-29.6,65.8-66.1C1423.5,285.9,1393.9,256.3,1357.7,256.3z"/>
	<path class="st1" d="M1603.1,414.3c-3.1,3.6-7.1,5.1-11.5,5.1c-3.6,0-7.1-1.3-10.2-3.8l-72.7-68.4c-0.3,0.3-0.5,0.5-1,0.8v56.4
		c0,8.4-6.6,15.1-15.1,15.1c-8.7,0-15.3-6.6-15.3-15.1V241c0-8.4,6.6-15.3,15.3-15.3c8.4,0,15.1,6.9,15.1,15.3v63.3l66.8-69.9
		c5.9-6.1,15.6-6.4,21.4-0.5c6.1,5.9,6.4,15.6,0.5,21.7l-66.8,69.6l72.2,67.6C1608.2,398.4,1608.7,408.1,1603.1,414.3z"/>
	<path class="st1" d="M1656.5,338.5V389h73c8.4,0,15.3,6.9,15.3,15.3c0,8.4-6.9,15.1-15.3,15.1h-88.3c-8.4,0-15-6.6-15-15.1V241
		c0-8.4,6.6-15.3,15-15.3h88.3c8.4,0,15.3,6.9,15.3,15.3c0,8.4-6.9,15.3-15.3,15.3h-73v51.8h73c8.4,0,15.3,6.6,15.3,15.3
		c0,8.4-6.9,15-15.3,15H1656.5z"/>
	<path class="st1" d="M1912.4,323.9c0,53.3-43.6,97-97,97h-0.5l-40.1-1.5c-8.4-0.3-14.8-7.1-14.8-15.6V242.3
		c0-8.4,6.6-15.1,15.3-15.1h40.1C1868.8,227.3,1912.4,270.6,1912.4,323.9z M1881.8,323.9c0-36.5-30.1-66.1-66.3-66.1h-24.8v131.4
		l25,0.8C1852.2,390,1881.8,360.4,1881.8,323.9z"/>
	<path class="st1" d="M1964.4,338.5V389h73c8.4,0,15.3,6.9,15.3,15.3c0,8.4-6.9,15.1-15.3,15.1h-88.3c-8.4,0-15-6.6-15-15.1V241
		c0-8.4,6.6-15.3,15-15.3h88.3c8.4,0,15.3,6.9,15.3,15.3c0,8.4-6.9,15.3-15.3,15.3h-73v51.8h73c8.4,0,15.3,6.6,15.3,15.3
		c0,8.4-6.9,15-15.3,15H1964.4z"/>
	<path class="st1" d="M2240.5,395.9c5.6,6.1,5.1,15.8-1,21.4c-3.1,2.6-6.6,3.8-10.5,3.8c-4.1,0-8.2-1.5-11.2-4.8l-61-67.4
		l-60.5,66.3c-2.8,3.3-7.1,5.1-11.2,5.1c-3.6,0-7.1-1.3-10.2-3.8c-6.1-5.9-6.6-15.3-1-21.7l62.2-68.6l-64-70.7
		c-5.9-6.1-5.4-15.8,1-21.4c6.1-5.6,15.8-5.4,21.4,1l62.3,68.6l63-69.4c5.6-6.4,15.3-6.9,21.4-1.3c6.1,5.9,6.6,15.3,1,21.7
		l-65.1,71.4L2240.5,395.9z"/>
</g>
</svg>
